<svg xmlns="http://www.w3.org/2000/svg" width="43" height="42" viewBox="-21.27777777777778 -20.77777777777778 43.0 42.0">
  <polygon points="-0.27777777777777773,-0.7777777777777778 0.7222222222222223,-0.7777777777777778 -0.27777777777777796,0.2222222222222222" fill="#cc5151" fill-opacity="0.7" stroke="black" stroke-width="0.5"/>
  <polygon points="-0.27777777777777796,0.2222222222222222 0.7222222222222223,-0.7777777777777778 0.7222222222222221,0.222222222222222" fill="#51cc75" fill-opacity="0.7" stroke="black" stroke-width="0.5"/>
  <polygon points="-0.27777777777777796,0.2222222222222222 0.7222222222222221,0.22222222222222288 -0.2777777777777777,-0.7777777777777777" fill="#9951cc" fill-opacity="0.7" stroke="black" stroke-width="0.5"/>
  <polygon points="-0.2777777777777771,1.2222222222222214 -1.277777777777778,0.2222222222222222 0.7222222222222225,1.2222222222222219" fill="#ccbc51" fill-opacity="0.7" stroke="black" stroke-width="0.5"/>
  <polygon points="-0.27777777777777773,-0.7777777777777778 -0.27777777777777796,0.2222222222222222 -1.277777777777778,0.2222222222222222" fill="#51b7cc" fill-opacity="0.7" stroke="black" stroke-width="0.5"/>
  <polygon points="-0.27777777777777773,-0.7777777777777778 -1.277777777777778,0.2222222222222222 -0.27777777777777796,0.2222222222222222" fill="#cc5193" fill-opacity="0.7" stroke="black" stroke-width="0.5"/>
  <polygon points="0.7222222222222221,0.222222222222222 0.7222222222222223,-0.7777777777777778 1.7222222222222223,-0.777777777777778" fill="#70cc51" fill-opacity="0.7" stroke="black" stroke-width="0.5"/>
  <polygon points="0.7222222222222221,0.222222222222222 -0.2777777777777775,1.2222222222222228 0.7222222222222225,1.2222222222222219" fill="#5651cc" fill-opacity="0.7" stroke="black" stroke-width="0.5"/>
  <polygon points="-0.27777777777777773,-0.7777777777777778 -0.27777777777777796,0.2222222222222222 0.7222222222222223,-0.7777777777777778" fill="#cc7a51" fill-opacity="0.7" stroke="black" stroke-width="0.5"/>
  <polygon points="0.7222222222222223,-0.7777777777777778 -0.27777777777777796,0.2222222222222222 -0.2777777777777777,-0.7777777777777777" fill="#51cc9e" fill-opacity="0.7" stroke="black" stroke-width="0.5"/>
  <polygon points="-0.27777777777777796,0.2222222222222222 0.7222222222222221,0.222222222222222 0.7222222222222225,1.2222222222222219" fill="#c151cc" fill-opacity="0.7" stroke="black" stroke-width="0.5"/>
  <polygon points="-0.27777777777777796,0.2222222222222222 -1.2777777777777781,-0.7777777777777778 -1.277777777777778,0.2222222222222222" fill="#b2cc51" fill-opacity="0.7" stroke="black" stroke-width="0.5"/>
</svg>
